<svg xmlns="http://www.w3.org/2000/svg" viewBox="0 0 64 64">
  <defs>
    <linearGradient id="fundo" x1="0" y1="0" x2="0" y2="1">
      <stop offset="0" stop-color="#4B59F7"/>
      <stop offset=".55" stop-color="#1F2ED6"/>
      <stop offset="1" stop-color="#1622A8"/>
    </linearGradient>
    <linearGradient id="luz" x1="0" y1="0" x2="0" y2="1">
      <stop offset="0" stop-color="#FFFFFF" stop-opacity=".22"/>
      <stop offset=".5" stop-color="#FFFFFF" stop-opacity="0"/>
    </linearGradient>
    <filter id="sombra" x="-30%" y="-30%" width="160%" height="160%">
      <feDropShadow dx="0" dy="1.2" stdDeviation="1.3" flood-color="#0B1270" flood-opacity=".35"/>
    </filter>
  </defs>
  <rect width="64" height="64" rx="14" fill="url(#fundo)"/>
  <rect width="64" height="64" rx="14" fill="url(#luz)"/>
  <g filter="url(#sombra)">
  <path fill="#FFFFFF" d="M28.5 19.5 C31.6 31.9 31.6 31.9 44.0 35 C31.6 38.1 31.6 38.1 28.5 50.5 C25.4 38.1 25.4 38.1 13.0 35 C25.4 31.9 25.4 31.9 28.5 19.5 Z M45.5 12.2 C46.86 17.64 46.86 17.64 52.3 19 C46.86 20.36 46.86 20.36 45.5 25.8 C44.14 20.36 44.14 20.36 38.7 19 C44.14 17.64 44.14 17.64 45.5 12.2 Z M47 42.5 C47.8 45.7 47.8 45.7 51 46.5 C47.8 47.3 47.8 47.3 47 50.5 C46.2 47.3 46.2 47.3 43 46.5 C46.2 45.7 46.2 45.7 47 42.5 Z"/>
  </g>
</svg>
